<?xml version="1.0" encoding="UTF-8"?>
<!DOCTYPE svg PUBLIC "-//W3C//DTD SVG 1.1//EN" "http://www.w3.org/Graphics/SVG/1.1/DTD/svg11.dtd">
<!-- Creator: CorelDRAW X7 -->
<svg xmlns="http://www.w3.org/2000/svg" xml:space="preserve" width="6.4in" height="3.6in" version="1.1" style="shape-rendering:geometricPrecision; text-rendering:geometricPrecision; image-rendering:optimizeQuality; fill-rule:evenodd; clip-rule:evenodd"
viewBox="0 0 6400 3600"
 xmlns:xlink="http://www.w3.org/1999/xlink">
 <defs>
  <style type="text/css">
   <![CDATA[
    .fil5 {fill:none}
    .fil2 {fill:#00818A}
    .fil3 {fill:#216583}
    .fil1 {fill:#293462}
    .fil0 {fill:#293462}
    .fil4 {fill:#F7BE16}
   ]]>
  </style>
   <clipPath id="id0">
    <path d="M0 0l6400 0 0 3600 -6400 0 0 -3600z"/>
   </clipPath>
 </defs>
 <g id="Layer_x0020_1">
  <metadata id="CorelCorpID_0Corel-Layer"/>
  <polygon class="fil0" points="0,0 6400,0 6400,3600 0,3600 "/>
  <g style="clip-path:url(#id0)">
   <g id="_2540638481408">
    <g>
     <rect class="fil1" transform="matrix(0.637923 -0 -0.205803 0.637923 1786.55 -54.9173)" width="2653" height="6333"/>
     <rect class="fil2" transform="matrix(0.637923 -0 -0.205803 0.637923 5171.42 -54.9173)" width="2653" height="6333"/>
     <rect class="fil3" transform="matrix(0.637923 -0 -0.205803 0.637923 3478.79 -54.9173)" width="2653" height="6333"/>
     <rect class="fil4" transform="matrix(0.637923 -0 -0.205803 0.637923 6864.04 -54.9173)" width="2653" height="6333"/>
    </g>
   </g>
  </g>
  <polygon class="fil5" points="0,0 6400,0 6400,3600 0,3600 "/>
 </g>
</svg>
