<svg xmlns="http://www.w3.org/2000/svg" xmlns:xlink="http://www.w3.org/1999/xlink" width="565.969" height="409.516" viewBox="0 0 565.969 409.516">
  <defs>
    <linearGradient id="linear-gradient" x1="0.5" y1="1" x2="0.5" gradientUnits="objectBoundingBox">
      <stop offset="0" stop-color="gray" stop-opacity="0.251"/>
      <stop offset="0.54" stop-color="gray" stop-opacity="0.122"/>
      <stop offset="1" stop-color="gray" stop-opacity="0.102"/>
    </linearGradient>
    <linearGradient id="linear-gradient-2" x1="0.799" y1="1" x2="0.799" y2="0" xlink:href="#linear-gradient"/>
  </defs>
  <g id="Group_19" data-name="Group 19" transform="translate(0 0)">
    <path id="Path_2111" data-name="Path 2111" d="M600.623,313.889c-17.895,29.267-14.73,69.018-7.063,100.363,2.566,10.5,5.531,21.563,3.248,33.323-2.792,14.379-12.794,25.714-22.9,32.2-18.42,11.834-39.39,11.592-54.577-.624-13.146-10.558-21.752-29.03-35.16-39.017-22.466-16.714-53.406-6.392-80.322,9.446-19.044,11.2-40,25.373-57.515,17.475C334.017,461.5,326.4,445.7,322.865,428.489c-1.7-8.307-2.708-17.386-6.659-23.709a26.036,26.036,0,0,0-8.958-8.318c-30.7-18.719-72.419-2.781-102.011-24-19.989-14.332-31.266-44.05-34.871-75.867s-.415-65.9,3.563-99.46c2.844-23.846,6.665-49.381,19.07-68.824,13.119-20.566,33.712-29.812,51.564-27.97s33.313,13.3,46.621,27.288c16.635,17.485,31.6,39.846,53.2,45.414,14.694,3.794,30.815-.74,46.469-3.332,26.171-4.335,51.953-3.233,77.541-1.758,24.5,1.412,49.156,3.206,71.957,11.876,16.137,6.135,28.485,19,43.53,27.33,9.808,5.431,20.9,6.077,30.028,13.34A45.945,45.945,0,0,1,630.241,267C625.859,286.968,610.116,298.361,600.623,313.889Z" transform="translate(-112.095 -78.968)" fill="#6c63ff" opacity="0.1"/>
    <path id="Path_2112" data-name="Path 2112" d="M328.931,230.009s-77.215-17.265,21.033-118.279c0,0,42.349,40.14,26.816,90.035-6.245,20.062-26.344,32.447-46.7,28.479Z" transform="translate(-174.49 -84.489)" fill="#63ff68"/>
    <path id="Path_2113" data-name="Path 2113" d="M329.151,230.009c-1.7-.378-75.567-18.971,21.033-118.279,0,0,42.349,40.14,26.816,90.035-6.245,20.062-26.344,32.447-46.7,28.479Z" transform="translate(-174.424 -82.489)" fill="#fff" opacity="0.4"/>
    <path id="Path_2114" data-name="Path 2114" d="M357,230.591s40.785-61.441,20.02-118.851" transform="translate(-201.536 -84.494)" fill="none" stroke="#535461" stroke-miterlimit="10" stroke-width="1"/>
    <path id="Path_2115" data-name="Path 2115" d="M956.459,297.944s-13.308-53.585,6.859-91.736a83.632,83.632,0,0,0,9.005-52.142,140.673,140.673,0,0,0-6.371-24.927" transform="translate(-484.367 -92.763)" fill="none" stroke="#535461" stroke-miterlimit="10" stroke-width="2"/>
    <path id="Path_2116" data-name="Path 2116" d="M981.129,72.079c-.278,6.486-12.826,24.785-12.826,24.785s-10.936-19.306-10.658-25.793a11.754,11.754,0,1,1,23.486,1.008Z" transform="translate(-486.975 -59.82)" fill="#6c63ff"/>
    <path id="Path_2117" data-name="Path 2117" d="M1014.509,136.4c-3.757,5.295-24.239,13.838-24.239,13.838s1.312-22.151,5.069-27.446a11.754,11.754,0,1,1,19.167,13.609Z" transform="translate(-502.482 -87.394)" fill="#6c63ff"/>
    <path id="Path_2118" data-name="Path 2118" d="M1004.557,249.764c-5.914,2.671-27.907-.289-27.907-.289s12.316-18.456,18.231-21.133a11.754,11.754,0,1,1,9.678,21.423Z" transform="translate(-496.009 -139.409)" fill="#6c63ff"/>
    <path id="Path_2119" data-name="Path 2119" d="M979.946,337.964c-5.379,3.631-27.556,4.429-27.556,4.429s9.021-20.272,14.4-23.909a11.754,11.754,0,1,1,13.157,19.481Z" transform="translate(-484.48 -181.786)" fill="#6c63ff"/>
    <path id="Path_2120" data-name="Path 2120" d="M940.282,162.046c4.455,4.723,25.929,10.328,25.929,10.328s-4.387-21.752-8.842-26.47a11.754,11.754,0,1,0-17.088,16.143Z" transform="translate(-477.2 -98.979)" fill="#6c63ff"/>
    <path id="Path_2121" data-name="Path 2121" d="M910.1,262.639c5.668,3.149,27.813,2.1,27.813,2.1s-10.669-19.448-16.341-22.613A11.755,11.755,0,0,0,910.1,262.639Z" transform="translate(-461.639 -145.809)" fill="#6c63ff"/>
    <path id="Path_2122" data-name="Path 2122" d="M897.963,366.856c5.048,4.078,27.073,6.77,27.073,6.77s-7.252-20.991-12.3-25.053a11.754,11.754,0,1,0-14.774,18.285Z" transform="translate(-456.539 -195.801)" fill="#6c63ff"/>
    <path id="Path_2123" data-name="Path 2123" d="M981.129,72.079c-.278,6.486-12.826,24.785-12.826,24.785s-10.936-19.306-10.658-25.793a11.754,11.754,0,1,1,23.486,1.008Z" transform="translate(-486.975 -59.82)" fill="#fc6681"/>
    <path id="Path_2124" data-name="Path 2124" d="M1014.509,136.4c-3.757,5.295-24.239,13.838-24.239,13.838s1.312-22.151,5.069-27.446a11.754,11.754,0,1,1,19.167,13.609Z" transform="translate(-502.482 -87.394)" fill="#fc6681"/>
    <path id="Path_2125" data-name="Path 2125" d="M1004.557,249.764c-5.914,2.671-27.907-.289-27.907-.289s12.316-18.456,18.231-21.133a11.754,11.754,0,1,1,9.678,21.423Z" transform="translate(-496.009 -139.409)" fill="#fc6681"/>
    <path id="Path_2126" data-name="Path 2126" d="M979.946,337.964c-5.379,3.631-27.556,4.429-27.556,4.429s9.021-20.272,14.4-23.909a11.754,11.754,0,1,1,13.157,19.481Z" transform="translate(-484.48 -181.786)" fill="#fc6681"/>
    <path id="Path_2127" data-name="Path 2127" d="M940.282,162.046c4.455,4.723,25.929,10.328,25.929,10.328s-4.387-21.752-8.842-26.47a11.754,11.754,0,1,0-17.088,16.143Z" transform="translate(-477.2 -98.979)" fill="#fc6681"/>
    <path id="Path_2128" data-name="Path 2128" d="M910.1,262.639c5.668,3.149,27.813,2.1,27.813,2.1s-10.669-19.448-16.341-22.613A11.755,11.755,0,0,0,910.1,262.639Z" transform="translate(-461.639 -145.809)" fill="#fc6681"/>
    <path id="Path_2129" data-name="Path 2129" d="M897.963,366.856c5.048,4.078,27.073,6.77,27.073,6.77s-7.252-20.991-12.3-25.053a11.754,11.754,0,1,0-14.774,18.285Z" transform="translate(-456.539 -195.801)" fill="#fc6681"/>
    <path id="Path_2130" data-name="Path 2130" d="M867.52,281.38s55.815-46.773,68.221-70.362a335.534,335.534,0,0,1,28.217-43.908" transform="translate(-444.148 -110.807)" fill="none" stroke="#535461" stroke-miterlimit="10" stroke-width="2"/>
    <path id="Path_2131" data-name="Path 2131" d="M1015.48,262.637l-24.14-5.447S997.029,282.663,1015.48,262.637Z" transform="translate(-502.99 -153.616)" fill="#6c63ff"/>
    <path id="Path_2132" data-name="Path 2132" d="M963.7,218l13.9,20.813S950.442,240.786,963.7,218Z" transform="translate(-488.122 -134.991)" fill="#6c63ff"/>
    <path id="Path_2133" data-name="Path 2133" d="M1035.452,226.783l-22.072-3.873S1027.25,244,1035.452,226.783Z" transform="translate(-513.464 -137.325)" fill="#6c63ff"/>
    <path id="Path_2134" data-name="Path 2134" d="M991.325,194.86l10.894,14.242S982.933,210.918,991.325,194.86Z" transform="translate(-501.978 -123.995)" fill="#6c63ff"/>
    <path id="Path_2135" data-name="Path 2135" d="M1035.14,189.45s18.813.9,20.991,2.692-2.8,12.322-9.971,10.606S1035.14,189.45,1035.14,189.45Z" transform="translate(-523.805 -121.424)" fill="#6c63ff"/>
    <path id="Path_2136" data-name="Path 2136" d="M1014.482,157.44s7.677,13.99,7.389,16.651-11.7,5.652-14.006-4.434S1014.482,157.44,1014.482,157.44Z" transform="translate(-510.662 -106.212)" fill="#6c63ff"/>
    <ellipse id="Ellipse_77" data-name="Ellipse 77" cx="5.248" cy="5.248" rx="5.248" ry="5.248" transform="translate(517.405 62.134) rotate(-72.43)" fill="#ffd037"/>
    <ellipse id="Ellipse_78" data-name="Ellipse 78" cx="5.248" cy="5.248" rx="5.248" ry="5.248" transform="translate(509.193 56.781) rotate(-72.43)" fill="#ffd037"/>
    <path id="Path_2137" data-name="Path 2137" d="M311.178,257.093s22.565-16.793-5.773-75.567c0,0-37.784-46.7,0-90.786,0,0-82.39,2.1-80.815,78.716s41.195,87.637,41.195,87.637Z" transform="translate(-138.6 -74.514)" fill="#63ff92"/>
    <path id="Path_2138" data-name="Path 2138" d="M323.279,257.079s-5.683-40.408-20.9-65.072a52.9,52.9,0,0,1-6.4-16.132,66.045,66.045,0,0,1,18.6-61.776L338.587,90.71" transform="translate(-171.777 -74.5)" fill="none" stroke="#535461" stroke-miterlimit="10" stroke-width="2"/>
    <path id="Path_2139" data-name="Path 2139" d="M466.246,150.69s5.185,6.78-2.393,17.013-13.823,18.892-11.3,25.252c0,0,11.43-19.007,20.734-19.275S476.479,162.12,466.246,150.69Z" transform="translate(-246.675 -103.004)" fill="#6c63ff"/>
    <path id="Path_2140" data-name="Path 2140" d="M466.5,150.69a8.4,8.4,0,0,1,1.05,2.125c9.079,10.663,13.912,20.618,5.19,20.87-8.129.231-17.879,14.767-20.214,18.435a7.88,7.88,0,0,0,.278.834s11.43-19.007,20.734-19.275S476.738,162.12,466.5,150.69Z" transform="translate(-246.934 -103.004)" opacity="0.1"/>
    <path id="Path_2141" data-name="Path 2141" d="M496.436,165.767c0,2.388-.268,4.319-.6,4.319s-.6-1.936-.6-4.319.336-1.265.666-1.265S496.436,163.385,496.436,165.767Z" transform="translate(-267.231 -109.444)" fill="#ffd037"/>
    <path id="Path_2142" data-name="Path 2142" d="M500.118,171.1c-2.1,1.144-3.92,1.831-4.077,1.543s1.412-1.448,3.505-2.592,1.27-.31,1.427,0S502.212,169.956,500.118,171.1Z" transform="translate(-267.606 -111.927)" fill="#ffd037"/>
    <path id="Path_2143" data-name="Path 2143" d="M416.465,150.69s-5.185,6.78,2.393,17.013,13.823,18.892,11.3,25.252c0,0-11.43-19.007-20.734-19.275S406.221,162.12,416.465,150.69Z" transform="translate(-224.266 -103.004)" fill="#6c63ff"/>
    <path id="Path_2144" data-name="Path 2144" d="M416.458,150.69a8.4,8.4,0,0,0-1.05,2.125c-9.079,10.663-13.912,20.618-5.19,20.87,8.129.231,17.879,14.767,20.214,18.435a7.872,7.872,0,0,1-.278.834s-11.445-19.013-20.75-19.27S406.215,162.12,416.458,150.69Z" transform="translate(-224.26 -103.004)" opacity="0.1"/>
    <path id="Path_2145" data-name="Path 2145" d="M408.62,165.767c0,2.388.268,4.319.6,4.319s.6-1.936.6-4.319-.336-1.265-.666-1.265S408.62,163.385,408.62,165.767Z" transform="translate(-226.067 -109.444)" fill="#ffd037"/>
    <path id="Path_2146" data-name="Path 2146" d="M401.166,171.1c2.1,1.144,3.92,1.831,4.077,1.543s-1.412-1.448-3.505-2.592-1.27-.31-1.427,0S399.072,169.956,401.166,171.1Z" transform="translate(-221.919 -111.927)" fill="#ffd037"/>
    <path id="Path_2147" data-name="Path 2147" d="M626.719,464l-45.975-202.29H563.662c-.682-7.73-1.139-15.218-1.312-22.271,0,0-61.923,13.55-111.3-25.651s-107.437,3.39-107.437,3.39l-.226-.163v.021c-4.03-2.855-59.646-40.969-107.2-3.217-49.36,39.2-111.3,25.651-111.3,25.651-.173,7.142-.635,14.694-1.333,22.5H107.7L60.75,464.733s190.86,7.147,257.743.556c2.4,5.069,12.736,8.879,25.121,8.879,13.917,0,25.236-4.812,25.63-10.81C421.307,467.32,533.335,473.654,626.719,464Z" transform="translate(-60.75 -125.109)" fill="url(#linear-gradient)"/>
    <path id="Path_2148" data-name="Path 2148" d="M117.965,323.311,72,521.854s253.03,9.477,273.407-3.789c0,0,157.081,15.874,280.754,3.08L581.146,323.08Z" transform="translate(-66.096 -184.928)" fill="#e2e2ec"/>
    <path id="Path_2149" data-name="Path 2149" d="M150.583,336.39l-42.853,185.1s235.907,8.837,254.9-3.532c0,0,146.449,14.8,261.752,2.87L582.4,336.17Z" transform="translate(-83.076 -191.149)" opacity="0.1"/>
    <path id="Path_2150" data-name="Path 2150" d="M585.672,244.09s-60.653,13.266-108.985-25.116-105.2,3.317-105.2,3.317-56.859-41.7-105.191-3.317S157.314,244.09,157.314,244.09c-1.91,77.236-37.9,202.332-37.9,202.332s66.337,18.005,154-18.477S371.5,440.738,371.5,440.738s10.422-49.282,98.086-12.794,154,18.477,154,18.477S587.566,321.326,585.672,244.09Z" transform="translate(-88.627 -127.737)" fill="#f1f2fb"/>
    <path id="Path_2151" data-name="Path 2151" d="M376.75,651.615s80.081-18.005,117.025,8.528c0,0,35.538-32.221,117.985-7.105" transform="translate(-210.921 -337.181)" opacity="0.1"/>
    <ellipse id="Ellipse_79" data-name="Ellipse 79" cx="25.116" cy="10.9" rx="25.116" ry="10.9" transform="translate(257.748 324.368)" fill="#e8eaf8"/>
    <path id="Path_2152" data-name="Path 2152" d="M599.32,239.55s18.005,91.452.472,220.337" transform="translate(-316.692 -145.233)" opacity="0.1"/>
    <path id="Path_2153" data-name="Path 2153" d="M224.7,319.181s37.716,8.764,70.362,0,92.586-37.432,112.3,0" transform="translate(-138.663 -174.16)" fill="none" stroke="#000" stroke-miterlimit="10" stroke-width="4" opacity="0.1"/>
    <path id="Path_2154" data-name="Path 2154" d="M224.7,361.077s37.716,8.764,70.362,0,103.333-8.291,112.3,0" transform="translate(-138.663 -199.945)" fill="none" stroke="#000" stroke-miterlimit="10" stroke-width="4" opacity="0.1"/>
    <path id="Path_2155" data-name="Path 2155" d="M224.7,404.011s37.716,8.764,70.362,0,92.586-37.432,112.3,0" transform="translate(-138.663 -214.473)" fill="none" stroke="#000" stroke-miterlimit="10" stroke-width="4" opacity="0.1"/>
    <path id="Path_2156" data-name="Path 2156" d="M224.7,445.947s37.716,8.764,70.362,0,103.333-8.291,112.3,0" transform="translate(-138.663 -240.278)" fill="none" stroke="#000" stroke-miterlimit="10" stroke-width="4" opacity="0.1"/>
    <path id="Path_2157" data-name="Path 2157" d="M809.433,319.181s-37.716,8.764-70.362,0-92.586-37.432-112.3,0" transform="translate(-329.737 -174.16)" fill="none" stroke="#000" stroke-miterlimit="10" stroke-width="4" opacity="0.1"/>
    <path id="Path_2158" data-name="Path 2158" d="M809.433,361.077s-37.716,8.764-70.362,0-103.333-8.291-112.3,0" transform="translate(-329.737 -199.945)" fill="none" stroke="#000" stroke-miterlimit="10" stroke-width="4" opacity="0.1"/>
    <path id="Path_2159" data-name="Path 2159" d="M809.433,404.011s-37.716,8.764-70.362,0-92.586-37.432-112.3,0" transform="translate(-329.737 -214.473)" fill="none" stroke="#000" stroke-miterlimit="10" stroke-width="4" opacity="0.1"/>
    <path id="Path_2160" data-name="Path 2160" d="M809.433,445.947s-37.716,8.764-70.362,0-103.333-8.291-112.3,0" transform="translate(-329.737 -240.278)" fill="none" stroke="#000" stroke-miterlimit="10" stroke-width="4" opacity="0.1"/>
    <path id="Path_2161" data-name="Path 2161" d="M945.337,764.216c1.574-1.2,3.07-2.624,3.526-4.34a3.673,3.673,0,0,0-2.461-4.419c-2.262-.7-4.676.572-6.512,1.863s-3.931,2.766-6.329,2.493a7.041,7.041,0,0,0,2.981-7.347,2.849,2.849,0,0,0-.829-1.5c-1.254-1.1-3.532-.625-5.033.236-4.781,2.745-6.114,8.039-6.14,12.81-.483-1.721-.073-3.511-.089-5.279a5.028,5.028,0,0,0-2.43-4.67,8.685,8.685,0,0,0-3.7-.708c-2.146-.063-4.545.11-6.009,1.4-1.821,1.574-1.349,4.266.236,6.019s4,2.855,6.219,4.067a12.958,12.958,0,0,1,4.445,3.458,3.148,3.148,0,0,1,.331.619h13.471A38.731,38.731,0,0,0,945.337,764.216Z" transform="translate(-464.875 -387.969)" fill="#6c63ff"/>
    <path id="Path_2162" data-name="Path 2162" d="M791.41,296.791s.131.756.352,2.1c-.115.21-.231.42-.352.624-4.3,7.242-4.964,17.674-4.56,26.239a85.854,85.854,0,0,0,3.605,20.361,95.177,95.177,0,0,1,3.673,26.449,19.229,19.229,0,0,0,6.024,4.387c.115.352.236.708.341,1.05a107.27,107.27,0,0,1,4,20.262l1.354,17.139s10.375,38.791,13.529,46.007c2.246,5.132,1.753,15.743,1.28,21.432-1.349,3.826-2.991,7.473-4.44,7.872-2.624.745-5.248,7.063-1.427,10.238h0a6.1,6.1,0,0,0,.918.63l.152.084.278.142.409.184.21.079.436.147.189.058c.2.058.415.115.64.168a11.455,11.455,0,0,0,7.788-1.233,15.709,15.709,0,0,0,7.347-3.532l-.052,2.734h3.149l-.147-5.463c.567-.635.882-1.05.882-1.05s.094-3.3.457-7.142l-.231,12.327h3.149l-.85-22.749a3.633,3.633,0,0,1,.625-.929c2.624-2.624-1.91-11.088-4.256-12.5,1.05-5.563,5.054-13.6,9.672-29,6.764-22.565-1.805-44.653-1.805-44.653V371.933c2.272-.976,3.61-1.643,3.61-1.643s-3.149-18.493,0-31.57c2.041-8.454,2.571-15.964.866-23.148,2.267-7.809,4.1-13.838,4.1-13.838l3.149-32.473c.8-4.875,1.343-9.047,1.69-12.595.058-.441.1-.887.121-1.328a66.329,66.329,0,0,0,.073-13.907,22.092,22.092,0,0,0,.189-3.994,15.778,15.778,0,0,0,.084-2.062c.451-.525.892-1.05,1.312-1.574a22.615,22.615,0,0,0,2.829-4.513c3.469-6.544,3.568-14.536-1.275-20.3-2.981-3.553-3.91-7.378-6.486-11.162-2.356-3.464-2.8-7.614-3.369-11.6a142.081,142.081,0,0,0-2.886-14.73c-.362-1.427-2.346-2.3-3.332-3.49-1.9-2.293-7.468-2.215-10.674-2.724-5.384-.855-11.214-1.653-16.116.462-3.411,1.475-5.862,4.156-8.528,6.523-2.87,2.545-8.748,3.773-9.661,6.822-.813,1.165-.855,2.624.525,4.576,1.333,1.879,3.432,3.222,5.389,4.629.252.178.488.367.735.525a19.165,19.165,0,0,0,10.417,20.277q-.079.512-.173,1.008a60.786,60.786,0,0,1-2.372,8.664c-.582,1.742-7.321,4.786-12.07,6.738a6.036,6.036,0,0,0-1.926-1.328c-3.611-.9-15.785,5.862-16.688,8.118-.252.63.409,2.372,1.485,4.566a16.268,16.268,0,0,0,.488,2.96c-.268,4.618.215,12.07,2.54,24.05Zm50.641,5.075c-.168-.32-.341-.645-.525-.981-5.012-10.133-7.987-26.517-.808-36.288.64.068,1.28.131,1.921.173.425,13.3.178,35.16.178,35.16S842.534,300.664,842.051,301.865ZM824.161,379.1c1.018,5.117,2.214,11.062,3.332,16.467a43.3,43.3,0,0,1-.262,19.06l-4.24-12.721L822,379.527l-.063-.918q1.023-.173,2.031-.373Z" transform="translate(-404.09 -109.515)" fill="url(#linear-gradient-2)"/>
    <path id="Path_2163" data-name="Path 2163" d="M862.266,576.927a42.622,42.622,0,0,1-.257,18.761,24.262,24.262,0,0,1-1.05,3.437l1.2,48.647.136,5.515a27.76,27.76,0,0,0,3.359.493,15.25,15.25,0,0,0,3.149,0,3.765,3.765,0,0,0,2.466-1.05c.493-.6.6-1.574-.1-2.986a8.879,8.879,0,0,1-.855-5.012c.042-.483.121-.992.215-1.517,1.05-5.473,4.97-13.387,9.519-28.542,6.659-22.2-1.774-43.95-1.774-43.95V550.29l-21.752-2.22s1.05,5.5,2.493,12.647C859.989,565.755,861.164,571.606,862.266,576.927Z" transform="translate(-438.921 -291.849)" fill="#fdc2cc"/>
    <path id="Path_2164" data-name="Path 2164" d="M862.266,576.927a42.622,42.622,0,0,1-.257,18.761,24.262,24.262,0,0,1-1.05,3.437l1.2,48.647.136,5.515a27.76,27.76,0,0,0,3.359.493,15.25,15.25,0,0,0,3.149,0,3.765,3.765,0,0,0,2.466-1.05c.493-.6.6-1.574-.1-2.986a8.879,8.879,0,0,1-.855-5.012c.042-.483.121-.992.215-1.517,1.05-5.473,4.97-13.387,9.519-28.542,6.659-22.2-1.774-43.95-1.774-43.95V550.29l-21.752-2.22s1.05,5.5,2.493,12.647C859.989,565.755,861.164,571.606,862.266,576.927Z" transform="translate(-438.921 -291.849)" opacity="0.1"/>
    <path id="Path_2165" data-name="Path 2165" d="M809.94,552.3a66.649,66.649,0,0,1,3.605,9.357,105.592,105.592,0,0,1,3.941,19.941l1.333,16.872s10.212,38.177,13.319,45.283c2.209,5.054,1.727,15.5,1.26,21.106-.189,2.278-.373,3.757-.373,3.757l4.529-5.547,5.935-7.279,2.708-3.322.593-.724a27.286,27.286,0,0,1-1.732-4.634h0a79.213,79.213,0,0,1-2.7-14.877c-1.333-13.76-1.774-32.41-1.774-32.41l-.7-2.1-4.2-12.547-.971-22.041-.362-8.16Z" transform="translate(-416.784 -293.859)" fill="#fdc2cc"/>
    <path id="Path_2166" data-name="Path 2166" d="M862.209,732.041a31.592,31.592,0,0,0-5.279,10.438c-1.412,4.8-3.894,12.18-5.977,12.773-3.107.887-6.213,9.766,1.774,11.545s14.652-7.105,14.652-7.105.446-15.539,3.107-18.2-2.22-11.545-4.44-12.432C865.158,728.7,863.657,730.167,862.209,732.041Z" transform="translate(-434.712 -377.834)" fill="#5f5d7e"/>
    <path id="Path_2167" data-name="Path 2167" d="M851.774,765.471a10.689,10.689,0,0,0,6.234-.567,13.933,13.933,0,0,0,8.722-11.97c.378-4.754,1.175-11.146,2.8-12.768,2.1-2.1-.525-8.082-2.781-10.942a1.2,1.2,0,0,1,1-.157c2.22.887,7.105,9.766,4.44,12.432s-3.107,18.2-3.107,18.2-6.649,8.879-14.641,7.095a7.347,7.347,0,0,1-3.18-1.464C851.428,765.382,851.6,765.429,851.774,765.471Z" transform="translate(-436.421 -377.842)" opacity="0.1"/>
    <path id="Path_2168" data-name="Path 2168" d="M887.911,752.768l.855,22.933H885.66l.43-22.917a.882.882,0,0,1,.913-.834h0A.882.882,0,0,1,887.911,752.768Z" transform="translate(-452.769 -388.738)" fill="#5f5d7e"/>
    <path id="Path_2169" data-name="Path 2169" d="M887.911,752.768l.855,22.933H885.66l.43-22.917a.882.882,0,0,1,.913-.834h0A.882.882,0,0,1,887.911,752.768Z" transform="translate(-452.769 -388.738)" opacity="0.15"/>
    <path id="Path_2170" data-name="Path 2170" d="M854.6,734.578a31.591,31.591,0,0,0-5.279,10.438c-1.412,4.8-3.894,12.18-5.977,12.773-3.107.887-6.213,9.766,1.774,11.545s14.652-7.116,14.652-7.116.446-15.539,3.107-18.2-2.22-11.545-4.44-12.432C857.538,731.257,856.047,732.705,854.6,734.578Z" transform="translate(-431.096 -379.039)" fill="#5f5d7e"/>
    <path id="Path_2171" data-name="Path 2171" d="M844.16,767.991a10.689,10.689,0,0,0,6.234-.567,13.933,13.933,0,0,0,8.722-11.97c.378-4.754,1.176-11.146,2.8-12.768,2.1-2.1-.525-8.082-2.781-10.942a1.2,1.2,0,0,1,1-.157c2.22.887,7.105,9.766,4.44,12.432s-3.1,18.2-3.1,18.2-6.659,8.879-14.652,7.105a7.347,7.347,0,0,1-3.18-1.464C843.829,767.912,843.981,767.96,844.16,767.991Z" transform="translate(-432.8 -379.039)" opacity="0.1"/>
    <path id="Path_2172" data-name="Path 2172" d="M880.272,755.257l.855,22.933H878l.43-22.917a.882.882,0,0,1,.913-.834h0a.882.882,0,0,1,.929.819Z" transform="translate(-449.128 -389.92)" fill="#5f5d7e"/>
    <path id="Path_2173" data-name="Path 2173" d="M880.272,755.257l.855,22.933H878l.43-22.917a.882.882,0,0,1,.913-.834h0a.882.882,0,0,1,.929.819Z" transform="translate(-449.128 -389.92)" opacity="0.15"/>
    <path id="Path_2174" data-name="Path 2174" d="M810.79,260.185l17.758,27.97,20.865,2.666s12.873-25.3,12.432-26.638-7.105-3.994-13.319-8.879,1.333-25.3,1.333-25.3l-20.419,1.774c.079.273.157.525.215.829a26.489,26.489,0,0,1-.1,10.637,59.831,59.831,0,0,1-2.34,8.512C826.329,254.412,810.79,260.185,810.79,260.185Z" transform="translate(-417.188 -140.694)" fill="#fdc2cc"/>
    <path id="Path_2175" data-name="Path 2175" d="M856.47,548.07s1.05,5.5,2.493,12.647a101.876,101.876,0,0,0,19.265-6.15V550.29Z" transform="translate(-438.897 -291.849)" opacity="0.1"/>
    <path id="Path_2176" data-name="Path 2176" d="M809.94,552.3a66.649,66.649,0,0,1,3.605,9.357c6.177,2.787,13.859,2.708,21.169,1.464l-.362-8.16Z" transform="translate(-416.784 -293.859)" opacity="0.1"/>
    <path id="Path_2177" data-name="Path 2177" d="M792.5,355.662c-4.235,7.132-4.886,17.391-4.487,25.85a84.487,84.487,0,0,0,3.547,20.036,93.673,93.673,0,0,1,3.621,26.034c15.093,16.425,52.383-2.22,52.383-2.22s-3.107-18.2,0-31.077c2.162-8.953,2.624-16.84.43-24.4a38.456,38.456,0,0,0-4.424-9.787c-.588-.934-1.16-1.968-1.711-3.075-5.143-10.4-8.113-27.488.157-36.913a17.241,17.241,0,0,1,2.886-2.624c7.21-5.221,10.5-11.02,11.881-15.927a21.416,21.416,0,0,0,.525-9.378C856.428,287.3,844,282.86,844,282.86c.446,14.652-18.2,27.078-18.2,27.078s-21.311-27.524-24.859-28.411-15.539,5.773-16.425,7.992,9.766,18.645,9.766,18.645S800.943,341.456,792.5,355.662Z" transform="translate(-404.676 -165.143)" fill="#f3971d"/>
    <path id="Path_2178" data-name="Path 2178" d="M896.325,328.012c7.21-5.222,10.5-11.02,11.881-15.927-.346-7.347-2.1-8.486-2.1-8.486s-14.667,14.2-13.334,19.1a50.778,50.778,0,0,1,.666,7.956,17.242,17.242,0,0,1,2.886-2.645Z" transform="translate(-456.108 -175.671)" opacity="0.1"/>
    <path id="Path_2179" data-name="Path 2179" d="M851.838,487.151c3.107,9.325,18.645-7.105,19.091-14.206.283-4.544,5.295-22.361,8.863-34.6a38.456,38.456,0,0,0-4.424-9.787c-.588-.934-1.16-1.968-1.711-3.075-1.685,4.14-8.449,21.112-8.055,26.16.446,5.773-2.666,14.206-2.666,14.206S848.731,477.826,851.838,487.151Z" transform="translate(-436.484 -233.591)" opacity="0.1"/>
    <path id="Path_2180" data-name="Path 2180" d="M888.156,303.59s4.886,3.107,0,32.851L885.05,368.4s-11.986,39.51-12.432,46.616-15.979,23.526-19.091,14.206,11.1-21.311,11.1-21.311,3.107-8.433,2.666-14.206,8.433-27.078,8.433-27.078.446-39.064-.887-43.95S888.156,303.59,888.156,303.59Z" transform="translate(-437.286 -175.666)" fill="#fdc2cc"/>
    <path id="Path_2181" data-name="Path 2181" d="M792.4,296.82s-5.773,1.333,0,31.077l3.553,32.41s7.992,46.616,7.546,51.953,17.318,19.091,18.645,11.545-8.879-19.978-8.879-19.978-4.45-9.782-4.45-27.986l-.887-14.652-6.208-52.824Z" transform="translate(-407.228 -172.449)" opacity="0.1"/>
    <path id="Path_2182" data-name="Path 2182" d="M790.677,296.82s-5.772,1.333,0,31.077l3.553,32.41s7.992,46.616,7.546,51.953,17.318,19.091,18.645,11.545-8.879-19.978-8.879-19.978-4.44-9.766-4.44-27.97l-.887-14.652-6.2-52.84Z" transform="translate(-406.411 -172.449)" fill="#fdc2cc"/>
    <path id="Path_2183" data-name="Path 2183" d="M787.411,296.838s-2.666,14.206,15.979,19.091-2.22-16.877-2.22-16.877S794.07,288.4,787.411,296.838Z" transform="translate(-406.015 -170.913)" opacity="0.1"/>
    <path id="Path_2184" data-name="Path 2184" d="M788.251,296s-2.661,14.2,15.985,19.086-2.22-16.871-2.22-16.871S794.911,287.557,788.251,296Z" transform="translate(-406.415 -170.512)" fill="#d39999"/>
    <path id="Path_2185" data-name="Path 2185" d="M902.242,296.838s2.666,14.206-15.979,19.091,2.215-16.877,2.215-16.877S895.562,288.4,902.242,296.838Z" transform="translate(-449.372 -170.913)" opacity="0.1"/>
    <path id="Path_2186" data-name="Path 2186" d="M901.385,296s2.687,14.2-15.979,19.086,2.22-16.871,2.22-16.871S894.725,287.557,901.385,296Z" transform="translate(-448.961 -170.512)" fill="#d39999"/>
    <path id="Path_2187" data-name="Path 2187" d="M846.55,244.033c2.451.714,5.2-5.027,8.092-5.027,3.07,0,5.961,6.145,8.522,4.844a76.943,76.943,0,0,1,3.243-12.17l-19.758,1.742A26.458,26.458,0,0,1,846.55,244.033Z" transform="translate(-434.182 -141.492)" opacity="0.1"/>
    <circle id="Ellipse_80" data-name="Ellipse 80" cx="18.866" cy="18.866" r="18.866" transform="translate(402.04 65.775)" fill="#fdc2cc"/>
    <path id="Path_2188" data-name="Path 2188" d="M814.848,189.256c1.312,1.847,3.38,3.149,5.305,4.555a58.3,58.3,0,0,1,6.728,5.631,19.89,19.89,0,0,1,3.763,4.66c1.5,2.792,1.695,5.951,1.873,9.026l1.831,31.765a20.272,20.272,0,0,1-.294,6.3,21.514,21.514,0,0,1-2.272,4.975c-2.419,4.293-4.907,8.669-8.8,12.07-1.3,1.128-2.886,2.587-2.2,4.067.556,1.191,2.267,1.574,3.736,1.747,6.166.829,13,1.538,18.189-1.469,1.957-1.134,3.579-2.76,5.773-3.464,3.054-.971,6.423.042,9.677.037,3.453,0,6.749-1.149,9.971-2.283a3.573,3.573,0,0,0,1.637-.924,2.733,2.733,0,0,0,.467-1.254c.488-2.577.95-5.248.152-7.772-.866-2.734-3.149-5.1-3.406-7.924-.336-3.925,3.285-7.121,5.888-10.349,5.542-6.869,6.775-16.761,1.086-23.536-2.934-3.495-3.852-7.263-6.387-10.984-2.32-3.406-2.76-7.494-3.317-11.419a139.871,139.871,0,0,0-2.844-14.5c-.352-1.406-2.309-2.267-3.28-3.437-1.879-2.257-7.347-2.178-10.5-2.682-5.3-.84-11.02-1.627-15.864.457-3.359,1.448-5.772,4.093-8.4,6.418C819.655,182.282,810.639,183.321,814.848,189.256Z" transform="translate(-418.596 -112.76)" opacity="0.1"/>
    <path id="Path_2189" data-name="Path 2189" d="M815.7,187.566c1.312,1.847,3.38,3.149,5.305,4.555a58.293,58.293,0,0,1,6.728,5.641,19.889,19.889,0,0,1,3.763,4.66c1.5,2.792,1.7,5.951,1.873,9.026l1.847,31.754a20.272,20.272,0,0,1-.294,6.3,21.517,21.517,0,0,1-2.272,4.975c-2.419,4.293-4.907,8.669-8.8,12.07-1.3,1.128-2.886,2.587-2.2,4.067.556,1.191,2.267,1.574,3.736,1.747,6.166.829,13,1.538,18.189-1.469,1.957-1.134,3.579-2.76,5.773-3.464,3.054-.971,6.423.042,9.677.037,3.453,0,6.749-1.149,9.971-2.283a3.573,3.573,0,0,0,1.637-.924A2.733,2.733,0,0,0,871.1,263c.488-2.577.95-5.248.152-7.772-.866-2.734-3.149-5.1-3.406-7.924-.336-3.925,3.285-7.121,5.888-10.349,5.542-6.869,6.775-16.761,1.086-23.536-2.934-3.495-3.852-7.263-6.386-10.984-2.32-3.406-2.76-7.494-3.317-11.419a139.855,139.855,0,0,0-2.844-14.5c-.352-1.406-2.309-2.267-3.28-3.437-1.879-2.257-7.347-2.178-10.5-2.682-5.3-.84-11.02-1.627-15.864.457-3.359,1.448-5.772,4.093-8.4,6.418C820.477,180.592,811.487,181.631,815.7,187.566Z" transform="translate(-418.998 -111.957)" fill="#865a61"/>
  </g>
</svg>
